<?xml version="1.0" encoding="utf-8"?>
<!-- Generator: Adobe Illustrator 24.3.0, SVG Export Plug-In . SVG Version: 6.00 Build 0)  -->
<svg version="1.1" id="Layer_1" xmlns="http://www.w3.org/2000/svg" xmlns:xlink="http://www.w3.org/1999/xlink" x="0px" y="0px"
	 viewBox="0 0 1366 768" style="enable-background:new 0 0 1366 768;" xml:space="preserve">
<style type="text/css">
	.st0{fill:#FFFFFF;}
</style>
<g>
	<path class="st0" d="M1306.47,280.81v27.26h-80.55h-8.54v8.54v44.75v8.68h8.54h80.8v27.26h-80.8h-8.54v8.54v44.75v8.68h8.54h80.55
		v27.26h-80.55h-35.94V280.81H1306.47z"/>
	<path class="st0" d="M59.29,428.01v-77.66v-69.13h35.94h33.32c9.64,0,18.5,1.7,26.58,5.09c7.99,3.3,15.47,8.4,22.45,15.28
		c6.79,6.7,11.94,14.14,15.42,22.31c3.3,8.17,4.96,17.03,4.96,26.58c0,9.64-1.65,18.5-4.96,26.58c-3.4,7.99-8.49,15.38-15.28,22.17
		c-6.89,6.79-14.41,11.89-22.58,15.28c-8.17,3.3-17.03,4.96-26.58,4.96H95.23h-8.54v8.54v57.97h-27.4V428.01z M86.69,392.35h8.54
		l33.32,0.14c5.88,0,11.25-1.01,16.11-3.03c4.78-1.93,9.32-5,13.63-9.23c3.95-4.13,6.98-8.68,9.09-13.63
		c2.11-4.68,3.17-10.05,3.17-16.11c0-5.88-1.05-11.2-3.17-15.97c-1.83-4.59-4.86-9.14-9.09-13.63c-4.04-4.13-8.54-7.25-13.49-9.36
		c-4.96-2.11-10.37-3.17-16.25-3.17H95.23h-8.54v8.54v33.46v33.46V392.35z"/>
	<path class="st0" d="M217.23,281.22h63.89c10.19,0,19.83,1.79,28.92,5.37c8.63,3.4,16.34,8.31,23.13,14.73
		c6.98,7.07,11.84,13.81,14.6,20.24c2.94,6.7,4.41,14.73,4.41,24.1v5.78c0,7.07-1.05,13.59-3.17,19.55
		c-2.02,5.69-5.14,11.61-9.36,17.76c-3.58,4.96-6.98,8.58-10.19,10.88c-3.03,2.29-7.25,4.5-12.67,6.61l-9.64,3.86l5.65,8.81
		l43.24,67.06h-34.15l-46.68-71.74h-30.29v71.74h-27.54L217.23,281.22z M285.25,386.84l0.14,0.14c5.6,0,10.51-0.92,14.73-2.75
		c3.76-1.75,7.67-4.64,11.7-8.68c4.13-4.13,7.07-8.54,8.81-13.22c1.75-4.22,2.62-9.32,2.62-15.28c0-5.42-0.87-10.37-2.62-14.87
		c-1.65-3.86-4.54-7.99-8.68-12.39v-0.14c-3.76-3.67-8.72-6.52-14.87-8.54c-5.78-1.93-12.02-2.89-18.73-2.89h-25.06h-8.54v8.68
		v61.28v8.54h8.54l10.33,0.14h6.89H285.25z"/>
	<path class="st0" d="M926.35,280.81v27.26H845.8h-8.54v8.54v44.75v8.68h8.54h80.8v27.26h-80.8h-8.54v8.54v44.75v8.68h8.54h80.55
		v27.26H845.8h-35.94V280.81H926.35z"/>
	<path class="st0" d="M1084.34,419.75v-24.37V280.81h27.4V489.7L978.03,347.18v15.7v123.65h-27.4V279.16L1084.34,419.75z"/>
	<path class="st0" d="M1136.28,281.22h27.4v204.76h-27.4V281.22z"/>
	<path class="st0" d="M793.53,378.5h-93.46h-2.31v25.13h53.93h13.45l-5.71,12.09c-2.72,5.71-6.11,11-10.19,15.89
		c-3.9,4.8-8.51,9.19-13.86,13.18c-6.61,4.8-13.45,8.29-20.51,10.46c-7.52,2.45-15.26,3.67-23.23,3.67
		c-10.15,0-19.74-1.86-28.8-5.57c-8.88-3.62-16.98-9.15-24.32-16.57c-7.34-7.43-12.82-15.53-16.44-24.32
		c-3.71-9.06-5.57-18.66-5.57-28.8c0-10.05,1.86-19.65,5.57-28.8c3.62-8.69,9.1-16.8,16.44-24.32c7.43-7.43,15.53-12.95,24.32-16.57
		c8.6-3.71,18.2-5.57,28.8-5.57c10.32,0,19.88,1.86,28.66,5.57c6.52,2.81,12.54,6.43,18.07,10.87l19.29-19.43
		c-3.44-2.72-6.43-4.94-8.97-6.66c-5.71-3.8-11.59-7.02-17.66-9.65c-5.89-2.54-12.27-4.53-19.15-5.98
		c-6.31-1.31-13.31-2.12-20.24-2.17v-0.33H468.27v0.2c-13.97,0.15-26.67,2.63-38.08,7.46c-11.95,4.98-23,12.54-33.15,22.69
		c-10.23,10.41-17.75,21.55-22.55,33.42c-4.98,11.86-7.47,24.95-7.47,39.26c0,14.4,2.49,27.48,7.47,39.26
		c4.8,12.04,12.32,23.14,22.55,33.28c9.96,10.05,21.01,17.57,33.15,22.55c11.76,4.83,24.46,7.31,38.08,7.46v0.56h223.37v-0.55
		c14.15-0.05,27.1-2.53,38.85-7.47c11.95-4.98,23.05-12.5,33.28-22.55c11.05-10.87,19.02-23.5,23.91-37.9
		C791.95,406.08,793.9,392.81,793.53,378.5z M596.28,344.27c-4.98,12.04-7.47,25.18-7.47,39.4c0,14.31,2.49,27.44,7.47,39.4
		c4.71,11.86,12.23,22.91,22.55,33.15c1.03,1.04,2.07,2.04,3.12,3.02h-82.97c1.06-0.98,2.11-1.99,3.15-3.02
		c10.15-10.05,17.71-21.1,22.69-33.15c5.07-12.14,7.61-25.27,7.61-39.4c0-14.04-2.53-27.17-7.61-39.4
		c-4.98-11.95-12.54-23-22.69-33.15c-1.02-1.01-2.04-1.98-3.08-2.94h82.65c-0.96,0.91-1.92,1.85-2.86,2.81
		C608.51,321.4,600.99,332.49,596.28,344.27z M416.47,436.51c-7.52-7.43-13.04-15.53-16.57-24.32c-3.62-8.69-5.43-18.3-5.43-28.8
		c0-10.32,1.81-19.93,5.43-28.8c3.62-8.79,9.15-16.89,16.57-24.32c6.97-7.06,15.04-12.59,24.18-16.57
		c8.67-3.55,17.88-5.39,27.62-5.54v0.02h3.36c9.38,0.23,18.26,2.06,26.61,5.52c9.06,3.89,17.21,9.42,24.45,16.57
		c7.25,7.52,12.73,15.62,16.44,24.32c3.8,8.97,5.71,18.56,5.71,28.8c0,10.41-1.9,20.01-5.71,28.8c-3.62,8.78-9.15,16.89-16.57,24.32
		c-7.24,7.24-15.35,12.72-24.32,16.44c-8.97,3.71-18.52,5.57-28.66,5.57c-10.23,0-19.88-1.86-28.94-5.57
		C431.5,449.23,423.44,443.75,416.47,436.51z"/>
</g>
</svg>
