<?xml version="1.0" encoding="utf-8"?>
<!-- Generator: Adobe Illustrator 24.3.0, SVG Export Plug-In . SVG Version: 6.00 Build 0)  -->
<svg version="1.1" xmlns="http://www.w3.org/2000/svg" xmlns:xlink="http://www.w3.org/1999/xlink" x="0px" y="0px"
	 viewBox="0 0 1366 768" style="enable-background:new 0 0 1366 768;" xml:space="preserve">
<style type="text/css">
	.st0{fill:#FFFFFF;}
</style>
<g id="Layer_2">
</g>
<g id="Layer_1">
	<g>
		<path class="st0" d="M79.43,425.36V350.8v-66.37h34.51h31.99c9.25,0,17.76,1.63,25.52,4.89c7.67,3.17,14.85,8.06,21.55,14.67
			c6.52,6.43,11.46,13.57,14.81,21.42c3.17,7.84,4.76,16.35,4.76,25.52c0,9.25-1.59,17.76-4.76,25.52
			c-3.26,7.67-8.15,14.76-14.67,21.28c-6.61,6.52-13.84,11.41-21.68,14.67c-7.84,3.17-16.35,4.76-25.52,4.76h-31.99h-8.2v8.2v55.66
			H79.43V425.36z M105.74,391.12h8.2l31.99,0.13c5.64,0,10.8-0.97,15.47-2.91c4.58-1.85,8.95-4.8,13.09-8.86
			c3.79-3.97,6.7-8.33,8.73-13.09c2.03-4.49,3.04-9.65,3.04-15.47c0-5.64-1.01-10.75-3.04-15.34c-1.76-4.41-4.67-8.77-8.73-13.09
			c-3.88-3.97-8.2-6.96-12.96-8.99c-4.76-2.03-9.96-3.04-15.6-3.04h-31.99h-8.2v8.2v32.13v32.13V391.12z"/>
		<path class="st0" d="M231.07,284.44h61.34c9.78,0,19.04,1.72,27.76,5.16c8.29,3.26,15.69,7.97,22.21,14.15
			c6.7,6.78,11.37,13.26,14.01,19.43c2.82,6.43,4.23,14.15,4.23,23.14v5.55c0,6.78-1.01,13.04-3.04,18.77
			c-1.94,5.46-4.93,11.15-8.99,17.05c-3.44,4.76-6.7,8.24-9.78,10.44c-2.91,2.2-6.96,4.32-12.16,6.35l-9.25,3.7l5.42,8.46
			l41.51,64.38h-32.79l-44.82-68.88h-29.08v68.88H231.2L231.07,284.44z M296.37,385.84l0.13,0.13c5.38,0,10.09-0.88,14.15-2.64
			c3.61-1.68,7.36-4.45,11.24-8.33c3.97-3.97,6.79-8.2,8.46-12.69c1.68-4.06,2.51-8.95,2.51-14.67c0-5.2-0.84-9.96-2.51-14.28
			c-1.59-3.7-4.36-7.67-8.33-11.9v-0.13c-3.61-3.53-8.37-6.26-14.28-8.2c-5.55-1.85-11.54-2.78-17.98-2.78H265.7h-8.2v8.33v58.83
			v8.2h8.2l9.92,0.13h6.61H296.37z"/>
		<path class="st0" d="M1067.25,417.43v-23.4V284.04h26.31v200.55L965.19,347.76v15.07v118.72h-26.31v-199.1L1067.25,417.43z"/>
		<path class="st0" d="M1120,284.44h26.31v196.59H1120V284.44z"/>
		<g>
			<polygon class="st0" points="1200.55,369.71 1200.55,361.38 1200.55,320.32 1174.24,320.32 1174.24,481.55 1208.75,481.55 
				1286.08,481.55 1286.08,455.37 1208.75,455.37 1200.55,455.37 1200.55,447.05 1200.55,404.08 1200.55,395.88 1208.75,395.88 
				1286.57,395.88 1286.57,369.71 1208.75,369.71 			"/>
			<polygon class="st0" points="1200.55,310.24 1200.55,310.21 1208.75,310.21 1286.08,310.21 1286.08,284.04 1174.24,284.04 
				1174.24,310.24 			"/>
		</g>
		<g>
			<path class="st0" d="M789.98,378.69h-90.96h-2.25v24.46h52.48h13.09l-5.55,11.77c-2.64,5.55-5.95,10.71-9.92,15.47
				c-3.79,4.67-8.29,8.94-13.48,12.82c-6.44,4.67-13.09,8.06-19.96,10.18c-7.32,2.38-14.85,3.57-22.61,3.57
				c-9.87,0-19.21-1.81-28.03-5.42c-8.64-3.53-16.53-8.9-23.66-16.13c-7.14-7.23-12.47-15.12-16-23.66
				c-3.61-8.82-5.42-18.16-5.42-28.03c0-9.78,1.81-19.13,5.42-28.03c3.52-8.46,8.86-16.35,16-23.66c4.68-4.68,9.64-8.57,14.88-11.7
				h-40.73c-6.67,7.97-11.77,16.32-15.26,25.05c-4.85,11.72-7.27,24.5-7.27,38.34c0,13.92,2.42,26.71,7.27,38.34
				c4.58,11.54,11.9,22.3,21.95,32.26c9.69,9.78,20.45,17.1,32.26,21.95c11.46,4.85,24.19,7.27,38.21,7.27
				c13.92,0,26.66-2.42,38.21-7.27c11.63-4.85,22.43-12.16,32.39-21.95c10.75-10.58,18.51-22.87,23.27-36.88
				C788.43,405.53,790.33,392.62,789.98,378.69z"/>
		</g>
		<g>
			<polygon class="st0" points="834.83,455.1 834.83,446.77 834.83,403.8 834.83,395.61 843.03,395.61 920.23,395.61 920.23,369.43 
				843.03,369.43 834.83,369.43 834.83,361.1 834.83,320.32 808.53,320.32 808.53,481.27 843.03,481.27 920.37,481.27 920.37,455.1 
				843.03,455.1 			"/>
			<path class="st0" d="M920.33,283.76H808.53H474.45v0.01c-14,0.03-26.69,2.45-38.08,7.27c-11.63,4.85-22.38,12.21-32.26,22.08
				c-9.96,10.13-17.27,20.98-21.95,32.52c-4.85,11.54-7.27,24.28-7.27,38.21c0,14.01,2.42,26.75,7.27,38.21
				c4.67,11.72,11.99,22.52,21.95,32.39c9.7,9.78,20.45,17.1,32.26,21.95c11.81,4.85,24.59,7.27,38.34,7.27
				c13.57,0,26.31-2.42,38.21-7.27c11.9-4.94,22.7-12.25,32.39-21.95c9.87-9.78,17.23-20.54,22.08-32.26
				c4.94-11.81,7.4-24.59,7.4-38.34c0-13.66-2.47-26.44-7.4-38.34c-3.71-8.91-8.91-17.3-15.57-25.18h-40.29
				c5.33,3.19,10.3,7.03,14.88,11.56c7.05,7.31,12.38,15.2,16,23.66c3.7,8.73,5.55,18.07,5.55,28.03c0,10.13-1.85,19.48-5.55,28.03
				c-3.52,8.55-8.9,16.44-16.13,23.66c-7.05,7.05-14.94,12.38-23.66,16c-8.73,3.61-18.02,5.42-27.89,5.42
				c-9.96,0-19.34-1.81-28.16-5.42c-8.9-3.61-16.74-8.95-23.53-16c-7.31-7.23-12.69-15.12-16.13-23.66
				c-3.52-8.46-5.29-17.81-5.29-28.03c0-10.05,1.76-19.39,5.29-28.03c3.53-8.55,8.9-16.44,16.13-23.66
				c6.79-6.87,14.63-12.25,23.53-16.13c8.82-3.61,18.2-5.42,28.16-5.42c0.47,0,0.93,0.02,1.39,0.03v0h66.18
				c-0.02-0.02-0.03-0.03-0.05-0.05h266.29v0.01h26.31v-0.01h85.5v-0.38h0.04v-26.18H920.33z"/>
		</g>
	</g>
</g>
</svg>
