<?xml version="1.0" encoding="utf-8"?>
<!-- Generator: Adobe Illustrator 24.3.0, SVG Export Plug-In . SVG Version: 6.00 Build 0)  -->
<svg version="1.1" xmlns="http://www.w3.org/2000/svg" xmlns:xlink="http://www.w3.org/1999/xlink" x="0px" y="0px"
	 viewBox="0 0 1366 768" style="enable-background:new 0 0 1366 768;" xml:space="preserve">
<style type="text/css">
	.st0{fill:#FFFFFF;}
	.st1{opacity:0.2;fill:#FFFFFF;}
	.st2{opacity:0.3;fill:#FFFFFF;}
	.st3{opacity:0.5;fill:#FFFFFF;}
	.st4{opacity:0.7;fill:#FFFFFF;}
</style>
<g id="Layer_2">
</g>
<g id="Layer_1">
	<g>
		<path class="st0" d="M48.48,428.11v-76.6v-68.18h35.45h32.87c9.51,0,18.25,1.67,26.21,5.03c7.88,3.26,15.26,8.28,22.14,15.08
			c6.7,6.61,11.77,13.94,15.21,22c3.26,8.06,4.89,16.8,4.89,26.21c0,9.51-1.63,18.24-4.89,26.21c-3.35,7.88-8.37,15.17-15.08,21.87
			c-6.79,6.7-14.21,11.72-22.27,15.08c-8.06,3.26-16.8,4.89-26.21,4.89H83.92H75.5v8.42v57.18H48.48V428.11z M75.5,392.93h8.42
			l32.87,0.14c5.8,0,11.09-1,15.89-2.99c4.71-1.9,9.19-4.94,13.45-9.1c3.9-4.07,6.88-8.56,8.96-13.45
			c2.08-4.62,3.12-9.91,3.12-15.89c0-5.8-1.04-11.05-3.12-15.75c-1.81-4.53-4.8-9.01-8.96-13.45c-3.98-4.07-8.42-7.15-13.31-9.24
			c-4.89-2.08-10.23-3.12-16.03-3.12H83.92H75.5v8.42v33v33V392.93z"/>
		<path class="st0" d="M204.26,283.33h63.02c10.05,0,19.56,1.77,28.52,5.3c8.51,3.35,16.12,8.19,22.82,14.53
			c6.88,6.97,11.68,13.63,14.4,19.97c2.9,6.61,4.35,14.53,4.35,23.77v5.7c0,6.97-1.04,13.4-3.12,19.29
			c-1.99,5.61-5.07,11.45-9.24,17.52c-3.53,4.89-6.88,8.46-10.05,10.73c-2.99,2.26-7.15,4.44-12.5,6.52l-9.51,3.8l5.57,8.69
			l42.65,66.14h-33.68l-46.04-70.76h-29.88v70.76h-27.16L204.26,283.33z M271.35,387.5l0.14,0.14c5.53,0,10.37-0.91,14.53-2.72
			c3.71-1.72,7.56-4.57,11.54-8.56c4.07-4.07,6.97-8.42,8.69-13.04c1.72-4.17,2.58-9.19,2.58-15.08c0-5.34-0.86-10.23-2.58-14.67
			c-1.63-3.8-4.48-7.88-8.56-12.22v-0.14c-3.71-3.62-8.6-6.43-14.67-8.42c-5.7-1.9-11.86-2.85-18.47-2.85h-24.72h-8.42v8.56v60.44
			v8.42h8.42l10.19,0.14h6.79H271.35z"/>
		<path class="st1" d="M485.82,289.17c11.86,4.98,22.95,12.58,33.28,22.82c10.14,10.14,17.7,21.19,22.68,33.14
			c5.07,12.22,7.61,25.35,7.61,39.39c0,14.12-2.53,27.25-7.61,39.39c-4.98,12.04-12.54,23.09-22.68,33.14
			c-9.96,9.96-21.05,17.47-33.28,22.55c-12.22,4.98-25.31,7.47-39.25,7.47c-14.13,0-27.25-2.49-39.39-7.47
			c-12.13-4.98-23.18-12.5-33.14-22.55c-10.23-10.14-17.75-21.23-22.55-33.28c-4.98-11.77-7.47-24.85-7.47-39.25
			c0-14.31,2.49-27.39,7.47-39.25c4.8-11.86,12.32-23,22.55-33.41c10.14-10.14,21.19-17.7,33.14-22.68
			c11.77-4.98,24.9-7.47,39.39-7.47C460.88,281.7,473.96,284.18,485.82,289.17z M417.64,314.56c-9.14,3.98-17.2,9.51-24.18,16.57
			c-7.42,7.42-12.95,15.53-16.57,24.31c-3.62,8.87-5.43,18.47-5.43,28.79c0,10.5,1.81,20.1,5.43,28.79
			c3.53,8.78,9.06,16.88,16.57,24.31c6.97,7.24,15.03,12.72,24.18,16.43c9.06,3.71,18.7,5.57,28.93,5.57
			c10.14,0,19.69-1.86,28.66-5.57c8.96-3.71,17.07-9.19,24.31-16.43c7.43-7.43,12.95-15.53,16.57-24.31
			c3.8-8.78,5.7-18.38,5.7-28.79c0-10.23-1.9-19.83-5.7-28.79c-3.71-8.69-9.19-16.8-16.43-24.31c-7.24-7.15-15.39-12.68-24.45-16.57
			c-8.96-3.71-18.51-5.57-28.66-5.57C436.34,309,426.7,310.85,417.64,314.56z"/>
		<path class="st2" d="M552.72,289.17c11.86,4.98,22.95,12.58,33.28,22.82c10.14,10.14,17.7,21.19,22.68,33.14
			c5.07,12.22,7.61,25.35,7.61,39.39c0,14.12-2.53,27.25-7.61,39.39c-4.98,12.04-12.54,23.09-22.68,33.14
			c-9.96,9.96-21.05,17.47-33.28,22.55c-12.22,4.98-25.31,7.47-39.25,7.47c-14.13,0-27.25-2.49-39.39-7.47
			c-12.13-4.98-23.18-12.5-33.14-22.55c-10.23-10.14-17.75-21.23-22.55-33.28c-4.98-11.77-7.47-24.85-7.47-39.25
			c0-14.31,2.49-27.39,7.47-39.25c4.8-11.86,12.32-23,22.55-33.41c10.14-10.14,21.19-17.7,33.14-22.68
			c11.77-4.98,24.9-7.47,39.39-7.47C527.78,281.7,540.86,284.18,552.72,289.17z M484.54,314.56c-9.14,3.98-17.2,9.51-24.18,16.57
			c-7.42,7.42-12.95,15.53-16.57,24.31c-3.62,8.87-5.43,18.47-5.43,28.79c0,10.5,1.81,20.1,5.43,28.79
			c3.53,8.78,9.06,16.88,16.57,24.31c6.97,7.24,15.03,12.72,24.18,16.43c9.06,3.71,18.7,5.57,28.93,5.57
			c10.14,0,19.69-1.86,28.66-5.57c8.96-3.71,17.07-9.19,24.31-16.43c7.43-7.43,12.95-15.53,16.57-24.31
			c3.8-8.78,5.7-18.38,5.7-28.79c0-10.23-1.9-19.83-5.7-28.79c-3.71-8.69-9.19-16.8-16.43-24.31c-7.24-7.15-15.39-12.68-24.45-16.57
			c-8.96-3.71-18.51-5.57-28.66-5.57C503.24,309,493.6,310.85,484.54,314.56z"/>
		<path class="st3" d="M619.62,289.17c11.86,4.98,22.95,12.58,33.28,22.82c10.14,10.14,17.7,21.19,22.68,33.14
			c5.07,12.22,7.61,25.35,7.61,39.39c0,14.12-2.53,27.25-7.61,39.39c-4.98,12.04-12.54,23.09-22.68,33.14
			c-9.96,9.96-21.05,17.47-33.28,22.55c-12.22,4.98-25.31,7.47-39.25,7.47c-14.13,0-27.25-2.49-39.39-7.47
			c-12.13-4.98-23.18-12.5-33.14-22.55c-10.23-10.14-17.75-21.23-22.55-33.28c-4.98-11.77-7.47-24.85-7.47-39.25
			c0-14.31,2.49-27.39,7.47-39.25c4.8-11.86,12.32-23,22.55-33.41c10.14-10.14,21.19-17.7,33.14-22.68
			c11.77-4.98,24.9-7.47,39.39-7.47C594.68,281.7,607.76,284.18,619.62,289.17z M551.44,314.56c-9.14,3.98-17.2,9.51-24.18,16.57
			c-7.42,7.42-12.95,15.53-16.57,24.31c-3.62,8.87-5.43,18.47-5.43,28.79c0,10.5,1.81,20.1,5.43,28.79
			c3.53,8.78,9.06,16.88,16.57,24.31c6.97,7.24,15.03,12.72,24.18,16.43c9.06,3.71,18.7,5.57,28.93,5.57
			c10.14,0,19.69-1.86,28.66-5.57c8.96-3.71,17.07-9.19,24.31-16.43c7.43-7.43,12.95-15.53,16.57-24.31
			c3.8-8.78,5.7-18.38,5.7-28.79c0-10.23-1.9-19.83-5.7-28.79c-3.71-8.69-9.19-16.8-16.43-24.31c-7.24-7.15-15.39-12.68-24.45-16.57
			c-8.96-3.71-18.51-5.57-28.66-5.57C570.14,309,560.5,310.85,551.44,314.56z"/>
		<path class="st4" d="M686.53,289.17c11.86,4.98,22.95,12.58,33.28,22.82c10.14,10.14,17.7,21.19,22.68,33.14
			c5.07,12.22,7.61,25.35,7.61,39.39c0,14.12-2.53,27.25-7.61,39.39c-4.98,12.04-12.54,23.09-22.68,33.14
			c-9.96,9.96-21.05,17.47-33.28,22.55c-12.22,4.98-25.31,7.47-39.25,7.47c-14.12,0-27.25-2.49-39.39-7.47
			c-12.13-4.98-23.18-12.5-33.14-22.55c-10.23-10.14-17.75-21.23-22.55-33.28c-4.98-11.77-7.47-24.85-7.47-39.25
			c0-14.31,2.49-27.39,7.47-39.25c4.8-11.86,12.32-23,22.55-33.41c10.14-10.14,21.19-17.7,33.14-22.68
			c11.77-4.98,24.9-7.47,39.39-7.47C661.58,281.7,674.67,284.18,686.53,289.17z M618.35,314.56c-9.14,3.98-17.2,9.51-24.18,16.57
			c-7.42,7.42-12.95,15.53-16.57,24.31c-3.62,8.87-5.43,18.47-5.43,28.79c0,10.5,1.81,20.1,5.43,28.79
			c3.53,8.78,9.06,16.88,16.57,24.31c6.97,7.24,15.03,12.72,24.18,16.43c9.06,3.71,18.7,5.57,28.93,5.57
			c10.14,0,19.69-1.86,28.66-5.57c8.96-3.71,17.07-9.19,24.31-16.43c7.43-7.43,12.95-15.53,16.57-24.31
			c3.8-8.78,5.7-18.38,5.7-28.79c0-10.23-1.9-19.83-5.7-28.79c-3.71-8.69-9.19-16.8-16.43-24.31c-7.24-7.15-15.39-12.68-24.45-16.57
			c-8.96-3.71-18.51-5.57-28.66-5.57C637.04,309,627.4,310.85,618.35,314.56z"/>
		<path class="st0" d="M943.35,282.92v26.89h-79.45h-8.42v8.42v44.14v8.56h8.42h79.73v26.89h-79.73h-8.42v8.42v44.14v8.56h8.42
			h79.45v26.89h-79.45h-35.45V282.92H943.35z"/>
		<path class="st0" d="M1094.24,419.96v-24.04v-113h27.03v206.04L989.39,348.38v15.48v121.96h-27.03V281.29L1094.24,419.96z"/>
		<path class="st0" d="M1148.43,283.33h27.03v201.96h-27.03V283.33z"/>
		<path class="st0" d="M1317.52,282.92v26.89h-79.45h-8.42v8.42v44.14v8.56h8.42h79.41v26.89h-79.41h-8.42v8.42v44.14v8.56h8.42
			h79.45v26.89h-79.45h-35.45V282.92H1317.52z"/>
		<path class="st0" d="M712.27,281.99l1.8-0.16c7.15,0,14.41,0.82,20.93,2.18c6.88,1.45,13.26,3.44,19.15,5.98
			c6.07,2.62,11.95,5.84,17.66,9.64c2.53,1.72,5.52,3.94,8.96,6.66l-19.29,19.42c-5.53-4.44-11.54-8.06-18.06-10.87
			c-8.78-3.71-18.34-5.57-28.66-5.57c-10.59,0-20.19,1.86-28.79,5.57c-8.78,3.62-16.89,9.14-24.31,16.57
			c-7.33,7.51-12.81,15.62-16.43,24.31c-3.71,9.14-5.57,18.74-5.57,28.79c0,10.14,1.86,19.74,5.57,28.79
			c3.62,8.78,9.1,16.88,16.43,24.31c7.33,7.42,15.44,12.95,24.31,16.57c9.05,3.71,18.65,5.57,28.79,5.57
			c7.97,0,15.71-1.22,23.22-3.67c7.06-2.17,13.9-5.66,20.51-10.46c5.34-3.98,9.96-8.38,13.85-13.17
			c4.07-4.89,7.47-10.19,10.19-15.89l5.7-12.09H774.8h-70.92v-25.13h2.31h110.44c0.36,14.3-1.59,27.57-5.84,39.79
			c-4.89,14.4-12.86,27.03-23.9,37.89c-10.23,10.05-21.32,17.56-33.28,22.55c-11.86,4.98-24.95,7.47-39.25,7.47
			c-14.4,0-27.48-2.49-39.25-7.47c-12.13-4.98-23.18-12.5-33.14-22.55c-10.32-10.23-17.84-21.28-22.55-33.14
			c-4.98-11.95-7.47-25.08-7.47-39.39c0-14.22,2.49-27.35,7.47-39.39c4.71-11.77,12.22-22.86,22.55-33.28
			c9.87-10.05,20.92-17.61,33.14-22.68c9.96-4.26,22.22-6.46,34.35-7.18H712.27z"/>
	</g>
</g>
</svg>
