<?xml version="1.0" encoding="utf-8"?>
<!-- Generator: Adobe Illustrator 24.3.0, SVG Export Plug-In . SVG Version: 6.00 Build 0)  -->
<svg version="1.1" id="Layer_1" xmlns="http://www.w3.org/2000/svg" xmlns:xlink="http://www.w3.org/1999/xlink" x="0px" y="0px"
	 viewBox="0 0 1366 768" style="enable-background:new 0 0 1366 768;" xml:space="preserve">
<style type="text/css">
	.st0{fill:#FFFFFF;}
</style>
<path class="st0" d="M1294.18,280.81v27.26h-80.55h-8.54v8.54v44.75v8.68h8.54h80.8v27.26h-80.8h-8.54v8.54v44.75v8.68h8.54h80.55
	v27.26h-80.55h-35.94V280.81H1294.18z"/>
<path class="st0" d="M72,428.01v-77.66v-69.13h35.94h33.32c9.64,0,18.5,1.7,26.58,5.09c7.99,3.3,15.47,8.4,22.45,15.28
	c6.79,6.7,11.94,14.14,15.42,22.31c3.3,8.17,4.96,17.03,4.96,26.58c0,9.64-1.65,18.5-4.96,26.58c-3.4,7.99-8.49,15.38-15.28,22.17
	c-6.89,6.79-14.41,11.89-22.58,15.28c-8.17,3.3-17.03,4.96-26.58,4.96h-33.32H99.4v8.54v57.97H72V428.01z M99.4,392.35h8.54
	l33.32,0.14c5.88,0,11.25-1.01,16.11-3.03c4.78-1.93,9.32-5,13.63-9.23c3.95-4.13,6.98-8.68,9.09-13.63
	c2.11-4.68,3.17-10.05,3.17-16.11c0-5.88-1.05-11.2-3.17-15.97c-1.83-4.59-4.86-9.14-9.09-13.63c-4.04-4.13-8.54-7.25-13.49-9.36
	c-4.96-2.11-10.37-3.17-16.25-3.17h-33.32H99.4v8.54v33.46v33.46V392.35z"/>
<path class="st0" d="M229.94,281.22h63.89c10.19,0,19.83,1.79,28.92,5.37c8.63,3.4,16.34,8.31,23.13,14.73
	c6.98,7.07,11.84,13.81,14.6,20.24c2.94,6.7,4.41,14.73,4.41,24.1v5.78c0,7.07-1.05,13.59-3.17,19.55
	c-2.02,5.69-5.14,11.61-9.36,17.76c-3.58,4.96-6.98,8.58-10.19,10.88c-3.03,2.29-7.25,4.5-12.67,6.61l-9.64,3.86l5.65,8.81
	l43.24,67.06h-34.15l-46.68-71.74h-30.29v71.74h-27.54L229.94,281.22z M297.97,386.84l0.14,0.14c5.6,0,10.51-0.92,14.73-2.75
	c3.76-1.75,7.67-4.64,11.7-8.68c4.13-4.13,7.07-8.54,8.81-13.22c1.75-4.22,2.62-9.32,2.62-15.28c0-5.42-0.87-10.37-2.62-14.87
	c-1.65-3.86-4.54-7.99-8.68-12.39v-0.14c-3.76-3.67-8.72-6.52-14.87-8.54c-5.78-1.93-12.02-2.89-18.73-2.89h-25.06h-8.54v8.68v61.28
	v8.54h8.54l10.33,0.14h6.89H297.97z"/>
<path class="st0" d="M914.06,280.81v27.26h-80.55h-8.54v8.54v44.75v8.68h8.54h80.8v27.26h-80.8h-8.54v8.54v44.75v8.68h8.54h80.55
	v27.26h-80.55h-35.94V280.81H914.06z"/>
<path class="st0" d="M1072.05,419.75v-24.37V280.81h27.4V489.7L965.74,347.18v15.7v123.65h-27.4V279.16L1072.05,419.75z"/>
<path class="st0" d="M1123.99,281.22h27.4v204.76h-27.4V281.22z"/>
<path class="st0" d="M580.25,343.88c-0.32-0.77-0.65-1.53-0.99-2.29c-0.15,0.25-5.63,9.81-8.67,29.86
	c-3.03,20-19.98,48.74-19.98,48.74l0.01-0.07c-3.41,6.1-7.8,11.85-13.19,17.25c-7.34,7.34-15.56,12.9-24.65,16.66
	c-9.09,3.76-18.77,5.65-29.05,5.65c-10.37,0-20.15-1.88-29.33-5.65c-9.27-3.76-17.44-9.32-24.51-16.66
	c-7.62-7.53-13.22-15.74-16.8-24.65c-3.67-8.81-5.51-18.55-5.51-29.19c0-10.47,1.84-20.2,5.51-29.19
	c3.67-8.91,9.27-17.12,16.8-24.65c7.07-7.16,15.24-12.76,24.51-16.8c9.18-3.76,18.96-5.65,29.33-5.65c10.28,0,19.97,1.88,29.05,5.65
	c9.18,3.95,17.44,9.55,24.79,16.8c7.34,7.62,12.9,15.84,16.66,24.65c1.26,2.97,2.3,6.02,3.14,9.13c2.34-7.88,7.52-23.69,14.37-35.56
	c-4.05-6.15-8.87-12.03-14.48-17.64c-10.47-10.37-21.71-18.09-33.74-23.13c-12.02-5.05-25.29-7.57-39.8-7.57
	c-14.69,0-28,2.52-39.93,7.57c-12.12,5.05-23.32,12.71-33.6,23c-10.37,10.56-17.99,21.85-22.86,33.87
	c-5.05,12.02-7.57,25.29-7.57,39.8c0,14.6,2.53,27.86,7.57,39.8c4.87,12.21,12.49,23.45,22.86,33.74
	c10.1,10.19,21.3,17.81,33.6,22.86c12.3,5.05,25.61,7.57,39.93,7.57c14.14,0,27.4-2.53,39.8-7.57
	c12.39-5.14,23.64-12.76,33.74-22.86c10.28-10.19,17.95-21.39,23-33.6c5.14-12.3,7.71-25.61,7.71-39.93
	C587.96,369.58,585.39,356.27,580.25,343.88z"/>
<path class="st0" d="M668.5,279.85h6.2c7.25,0,14.18,0.69,20.79,2.07c6.98,1.47,13.45,3.49,19.42,6.06
	c6.15,2.66,12.12,5.92,17.9,9.78c2.57,1.74,5.6,3.99,9.09,6.75l-19.55,19.69c-5.6-4.5-11.7-8.17-18.31-11.02
	c-8.91-3.76-18.59-5.65-29.05-5.65c-10.74,0-20.47,1.88-29.19,5.65c-8.91,3.67-17.12,9.27-24.65,16.8
	c-7.44,7.62-12.99,15.84-16.66,24.65c-3.76,9.27-5.65,19-5.65,29.19c0,10.28,1.88,20.01,5.65,29.19c3.67,8.9,9.23,17.12,16.66,24.65
	c7.44,7.53,15.65,13.13,24.65,16.8c9.18,3.76,18.91,5.65,29.19,5.65c8.08,0,15.93-1.24,23.55-3.72c7.16-2.2,14.09-5.74,20.79-10.6
	c5.41-4.04,10.1-8.49,14.05-13.36c4.13-4.96,7.57-10.33,10.33-16.11l5.78-12.26h-13.63h-54.67v-25.47h2.34h94.74
	c0.37,14.5-1.61,27.95-5.92,40.35c-4.96,14.6-13.04,27.4-24.24,38.42c-10.37,10.19-21.62,17.81-33.74,22.86
	c-12.03,5.05-25.29,7.57-39.8,7.57c-14.6,0-27.86-2.53-39.8-7.57c-12.3-5.05-23.5-12.67-33.6-22.86
	c-10.47-10.37-18.09-21.57-22.86-33.6c-5.05-12.12-7.57-25.43-7.57-39.93c0-14.41,2.52-27.72,7.57-39.93
	c4.77-11.94,12.39-23.18,22.86-33.74c10.01-10.19,21.21-17.86,33.6-23c10.1-4.32,21.3-6.84,33.6-7.57L668.5,279.85z"/>
</svg>
